<svg width="16" height="16" viewBox="0 0 16 16" fill="none" xmlns="http://www.w3.org/2000/svg">
<rect width="16" height="16" fill="white"/>
<path d="M8 14C7.17172 14 6.39394 13.8434 5.66667 13.5303C4.9495 13.2273 4.31313 12.803 3.75758 12.2576C3.21212 11.702 2.78283 11.0606 2.4697 10.3333C2.15657 9.60606 2 8.82828 2 8C2 7.17172 2.15657 6.39394 2.4697 5.66667C2.78283 4.93939 3.21212 4.30303 3.75758 3.75758C4.31313 3.20202 4.9495 2.77273 5.66667 2.4697C6.39394 2.15657 7.17172 2 8 2C8.82828 2 9.60606 2.15657 10.3333 2.4697C11.0606 2.77273 11.697 3.20202 12.2424 3.75758C12.798 4.30303 13.2273 4.93939 13.5303 5.66667C13.8434 6.39394 14 7.17172 14 8C14 8.82828 13.8434 9.60606 13.5303 10.3333C13.2273 11.0606 12.798 11.702 12.2424 12.2576C11.697 12.803 11.0606 13.2273 10.3333 13.5303C9.60606 13.8434 8.82828 14 8 14ZM8 12.9545C8.68687 12.9545 9.32828 12.8283 9.92424 12.5758C10.5202 12.3131 11.0455 11.9545 11.5 11.5C11.9545 11.0455 12.3081 10.5202 12.5606 9.92424C12.8232 9.32828 12.9545 8.68687 12.9545 8C12.9545 7.31313 12.8232 6.67172 12.5606 6.07576C12.3081 5.4798 11.9545 4.95454 11.5 4.5C11.0455 4.04545 10.5202 3.69192 9.92424 3.43939C9.32828 3.17677 8.68687 3.04545 8 3.04545C7.31313 3.04545 6.67172 3.17677 6.07576 3.43939C5.4798 3.69192 4.95455 4.04545 4.5 4.5C4.04545 4.95454 3.68687 5.4798 3.42424 6.07576C3.17172 6.67172 3.04545 7.31313 3.04545 8C3.04545 8.68687 3.17172 9.32828 3.42424 9.92424C3.68687 10.5202 4.04545 11.0455 4.5 11.5C4.95455 11.9545 5.4798 12.3131 6.07576 12.5758C6.67172 12.8283 7.31313 12.9545 8 12.9545ZM8 12.2273C7.41414 12.2273 6.86364 12.1212 6.34849 11.9091C5.84343 11.6869 5.39394 11.3838 5 11C4.61616 10.6061 4.31313 10.1566 4.09091 9.65151C3.87879 9.13636 3.77273 8.58586 3.77273 8C3.77273 7.41414 3.87879 6.86869 4.09091 6.36364C4.31313 5.84848 4.61616 5.39899 5 5.01515C5.39394 4.62121 5.84343 4.31818 6.34849 4.10606C6.86364 3.88384 7.41414 3.77273 8 3.77273C8.58586 3.77273 9.13636 3.88384 9.65152 4.10606C10.1667 4.31818 10.6162 4.62121 11 5.01515C11.3939 5.39899 11.697 5.84848 11.9091 6.36364C12.1313 6.86869 12.2424 7.41414 12.2424 8C12.2424 8.58586 12.1313 9.13636 11.9091 9.65151C11.697 10.1566 11.3939 10.6061 11 11C10.6162 11.3838 10.1667 11.6869 9.65152 11.9091C9.13636 12.1212 8.58586 12.2273 8 12.2273Z" fill="#FFCA0C"/>
<path fill-rule="evenodd" clip-rule="evenodd" d="M8.71641 3.83102C8.48379 3.79216 8.24498 3.77274 8 3.77274C7.75284 3.77274 7.51198 3.79251 7.2774 3.83206L7.47181 4.03115L6.01279 5.49017L5.27611 4.76158C5.18122 4.84144 5.08919 4.92597 5 5.01516C4.91301 5.10215 4.83018 5.1925 4.75149 5.28623L5.4882 6.01476L4.02918 7.47377L3.83022 7.27481C3.79189 7.50924 3.77273 7.75097 3.77273 8.00001C3.77273 8.24797 3.79173 8.48961 3.82973 8.7249L4.02918 8.52295L5.4882 9.98197L4.75317 10.7256C4.83136 10.8199 4.91363 10.9114 5 11C5.09113 11.0888 5.18524 11.1733 5.28232 11.2534L6.01279 10.523L7.47181 11.9984L7.29649 12.1737C7.52504 12.2094 7.75954 12.2273 8 12.2273C8.23827 12.2273 8.4707 12.2097 8.69728 12.1747L8.52099 11.9984L9.98 10.5066L10.7204 11.2556C10.8172 11.1748 10.9104 11.0896 11 11C11.088 10.912 11.1714 10.8213 11.2504 10.7277L10.5046 9.98197L11.9472 8.52295L12.1782 8.75102C12.221 8.50749 12.2424 8.25716 12.2424 8.00001C12.2424 7.74099 12.2207 7.48986 12.1773 7.24663L11.9472 7.47377L10.5046 6.03115L11.2518 5.28391C11.1725 5.19101 11.0885 5.10143 11 5.01516C10.9097 4.92244 10.8157 4.83476 10.7181 4.75211L9.98 5.49017L8.52099 4.03115L8.71641 3.83102ZM9.47181 6.01476L7.9964 7.47377L6.53738 6.01476L7.9964 4.55574L9.47181 6.01476ZM7.47181 7.99836L6.01279 9.45738L4.55377 7.99836L6.01279 6.53935L7.47181 7.99836ZM11.439 7.99836L9.98 9.45738L8.52099 8.01476L9.98 6.55574L11.439 7.99836ZM9.47181 9.98197L7.9964 11.4738L6.53738 10.0148L7.9964 8.53935L9.47181 9.98197Z" fill="black"/>
</svg>
